<?xml version="1.0" encoding="UTF-8" standalone="no"?>
<!-- Created with Inkscape (http://www.inkscape.org/) -->

<svg
   width="100mm"
   height="100mm"
   viewBox="0 0 100 100"
   version="1.1"
   id="svg1"
   xml:space="preserve"
   inkscape:export-filename="ephys.svg"
   inkscape:export-xdpi="96"
   inkscape:export-ydpi="96"
   xmlns:inkscape="http://www.inkscape.org/namespaces/inkscape"
   xmlns:sodipodi="http://sodipodi.sourceforge.net/DTD/sodipodi-0.dtd"
   xmlns:xlink="http://www.w3.org/1999/xlink"
   xmlns="http://www.w3.org/2000/svg"
   xmlns:svg="http://www.w3.org/2000/svg"><sodipodi:namedview
     id="namedview1"
     pagecolor="#ffffff"
     bordercolor="#000000"
     borderopacity="0.25"
     inkscape:showpageshadow="2"
     inkscape:pageopacity="0.0"
     inkscape:pagecheckerboard="0"
     inkscape:deskcolor="#d1d1d1"
     inkscape:document-units="mm" /><defs
     id="defs1"><linearGradient
       id="linearGradient22"
       inkscape:collect="always"><stop
         style="stop-color:#000000;stop-opacity:0;"
         offset="0"
         id="stop24" /><stop
         style="stop-color:#d59e00;stop-opacity:1;"
         offset="0.07312064"
         id="stop23" /></linearGradient><linearGradient
       id="swatch18"
       inkscape:swatch="solid"><stop
         style="stop-color:#000000;stop-opacity:1;"
         offset="0"
         id="stop18" /></linearGradient><marker
       style="overflow:visible"
       id="marker12"
       refX="0"
       refY="0"
       orient="auto"
       inkscape:stockid="Dot"
       markerWidth="0.2"
       markerHeight="0.2"
       viewBox="0 0 1 1"
       inkscape:isstock="true"
       inkscape:collect="always"
       preserveAspectRatio="xMidYMid"><path
         transform="scale(0.5)"
         style="fill:context-stroke;fill-rule:evenodd;stroke:none"
         d="M 5,0 C 5,2.76 2.76,5 0,5 -2.76,5 -5,2.76 -5,0 c 0,-2.76 2.3,-5 5,-5 2.76,0 5,2.24 5,5 z"
         sodipodi:nodetypes="sssss"
         id="path12" /></marker><marker
       style="overflow:visible"
       id="Dot"
       refX="0"
       refY="0"
       orient="auto"
       inkscape:stockid="Dot"
       markerWidth="0.2"
       markerHeight="0.2"
       viewBox="0 0 1 1"
       inkscape:isstock="true"
       inkscape:collect="always"
       preserveAspectRatio="xMidYMid"><path
         transform="scale(0.5)"
         style="fill:context-stroke;fill-rule:evenodd;stroke:none"
         d="M 5,0 C 5,2.76 2.76,5 0,5 -2.76,5 -5,2.76 -5,0 c 0,-2.76 2.3,-5 5,-5 2.76,0 5,2.24 5,5 z"
         sodipodi:nodetypes="sssss"
         id="path17" /></marker><linearGradient
       inkscape:collect="always"
       xlink:href="#linearGradient22"
       id="linearGradient24"
       x1="27.223186"
       y1="49.065441"
       x2="72.05014"
       y2="49.065441"
       gradientUnits="userSpaceOnUse" /><linearGradient
       inkscape:collect="always"
       xlink:href="#linearGradient22"
       id="linearGradient2"
       gradientUnits="userSpaceOnUse"
       x1="27.223186"
       y1="49.065441"
       x2="72.05014"
       y2="49.065441" /><linearGradient
       inkscape:collect="always"
       xlink:href="#linearGradient22"
       id="linearGradient3"
       gradientUnits="userSpaceOnUse"
       x1="27.223186"
       y1="49.065441"
       x2="72.05014"
       y2="49.065441" /></defs><g
     inkscape:label="Layer 1"
     inkscape:groupmode="layer"
     id="layer1"><g
       id="g13"
       transform="matrix(2.1407662,0,0,2.1820727,-56.278478,-57.043593)"
       style="fill:#000000;fill-opacity:1;stroke:url(#linearGradient24);stroke-opacity:1"><path
         style="fill:none;fill-opacity:1;stroke:url(#linearGradient2);stroke-width:2;stroke-dasharray:none;stroke-opacity:1;marker-start:url(#Dot);marker-end:url(#marker12)"
         d="m 28.223248,57.125578 c 1.243044,0.117208 2.648557,0.209051 3.973318,-0.167935 1.02845,-0.292664 2.008775,-1.373227 2.993529,-2.204056 l 0.891113,-2.195441 1.326864,-6.31207 1.939462,-8.507811 c 1.010181,-2.082584 3.550567,-1.786384 4.455894,0.200304 l 2.43426,20.543377 c 2.113387,4.117089 4.789535,3.731613 7.39066,2.504521 0.97747,-1.105809 1.390587,-2.504471 2.132351,-3.554201 0.624674,-0.884027 1.568327,-1.483812 2.420665,-1.820039 1.122612,-0.469456 2.419614,-0.656997 4.915458,-0.61891"
         id="path10"
         sodipodi:nodetypes="cscccccccscc" /><circle
         style="fill:#d59e00;fill-opacity:1;stroke:url(#linearGradient3);stroke-width:1.5;stroke-dasharray:none;stroke-opacity:1"
         id="path13"
         cx="69.05014"
         cy="55.240696"
         r="2.25" /></g></g></svg>
