<?xml version="1.0" encoding="UTF-8" standalone="no"?>
<!-- Created with Inkscape (http://www.inkscape.org/) -->

<svg
   width="96mm"
   height="99.721809mm"
   viewBox="0 0 96 99.721809"
   version="1.1"
   id="svg1"
   xml:space="preserve"
   inkscape:export-filename="speech.svg"
   inkscape:export-xdpi="96"
   inkscape:export-ydpi="96"
   sodipodi:docname="speech (Copy).svg"
   xmlns:inkscape="http://www.inkscape.org/namespaces/inkscape"
   xmlns:sodipodi="http://sodipodi.sourceforge.net/DTD/sodipodi-0.dtd"
   xmlns="http://www.w3.org/2000/svg"
   xmlns:svg="http://www.w3.org/2000/svg"><sodipodi:namedview
     id="namedview1"
     pagecolor="#ffffff"
     bordercolor="#000000"
     borderopacity="0.25"
     inkscape:showpageshadow="2"
     inkscape:pageopacity="0.0"
     inkscape:pagecheckerboard="0"
     inkscape:deskcolor="#d1d1d1"
     inkscape:document-units="mm" /><defs
     id="defs1"><marker
       style="overflow:visible"
       id="ArrowWide"
       refX="0"
       refY="0"
       orient="auto-start-reverse"
       inkscape:stockid="Wide arrow"
       markerWidth="1"
       markerHeight="1"
       viewBox="0 0 1 1"
       inkscape:isstock="true"
       inkscape:collect="always"
       preserveAspectRatio="xMidYMid"><path
         style="fill:none;stroke:context-stroke;stroke-width:1;stroke-linecap:butt"
         d="M 3,-3 0,0 3,3"
         transform="rotate(180,0.125,0)"
         sodipodi:nodetypes="ccc"
         id="path8" /></marker><marker
       style="overflow:visible"
       id="marker3"
       refX="0"
       refY="0"
       orient="auto"
       inkscape:stockid="Dot"
       markerWidth="0.2"
       markerHeight="0.2"
       viewBox="0 0 1 1"
       inkscape:isstock="true"
       inkscape:collect="always"
       preserveAspectRatio="xMidYMid"><path
         transform="scale(0.5)"
         style="fill:context-stroke;fill-rule:evenodd;stroke:none"
         d="M 5,0 C 5,2.76 2.76,5 0,5 -2.76,5 -5,2.76 -5,0 c 0,-2.76 2.3,-5 5,-5 2.76,0 5,2.24 5,5 z"
         sodipodi:nodetypes="sssss"
         id="path3" /></marker><marker
       style="overflow:visible"
       id="Dot"
       refX="0"
       refY="0"
       orient="auto"
       inkscape:stockid="Dot"
       markerWidth="0.2"
       markerHeight="0.2"
       viewBox="0 0 1 1"
       inkscape:isstock="true"
       inkscape:collect="always"
       preserveAspectRatio="xMidYMid"><path
         transform="scale(0.5)"
         style="fill:context-stroke;fill-rule:evenodd;stroke:none"
         d="M 5,0 C 5,2.76 2.76,5 0,5 -2.76,5 -5,2.76 -5,0 c 0,-2.76 2.3,-5 5,-5 2.76,0 5,2.24 5,5 z"
         sodipodi:nodetypes="sssss"
         id="path17" /></marker><linearGradient
       id="swatch18"
       inkscape:swatch="solid"><stop
         style="stop-color:#000000;stop-opacity:1;"
         offset="0"
         id="stop18" /></linearGradient><marker
       style="overflow:visible"
       id="marker3-5"
       refX="0"
       refY="0"
       orient="auto"
       inkscape:stockid="Dot"
       markerWidth="0.2"
       markerHeight="0.2"
       viewBox="0 0 1 1"
       inkscape:isstock="true"
       inkscape:collect="always"
       preserveAspectRatio="xMidYMid"><path
         transform="scale(0.5)"
         style="fill:context-stroke;fill-rule:evenodd;stroke:none"
         d="M 5,0 C 5,2.76 2.76,5 0,5 -2.76,5 -5,2.76 -5,0 c 0,-2.76 2.3,-5 5,-5 2.76,0 5,2.24 5,5 z"
         sodipodi:nodetypes="sssss"
         id="path3-6" /></marker><marker
       style="overflow:visible"
       id="Dot-2"
       refX="0"
       refY="0"
       orient="auto"
       inkscape:stockid="Dot"
       markerWidth="0.2"
       markerHeight="0.2"
       viewBox="0 0 1 1"
       inkscape:isstock="true"
       inkscape:collect="always"
       preserveAspectRatio="xMidYMid"><path
         transform="scale(0.5)"
         style="fill:context-stroke;fill-rule:evenodd;stroke:none"
         d="M 5,0 C 5,2.76 2.76,5 0,5 -2.76,5 -5,2.76 -5,0 c 0,-2.76 2.3,-5 5,-5 2.76,0 5,2.24 5,5 z"
         sodipodi:nodetypes="sssss"
         id="path17-9" /></marker><marker
       style="overflow:visible"
       id="marker3-9"
       refX="0"
       refY="0"
       orient="auto"
       inkscape:stockid="Dot"
       markerWidth="0.2"
       markerHeight="0.2"
       viewBox="0 0 1 1"
       inkscape:isstock="true"
       inkscape:collect="always"
       preserveAspectRatio="xMidYMid"><path
         transform="scale(0.5)"
         style="fill:context-stroke;fill-rule:evenodd;stroke:none"
         d="M 5,0 C 5,2.76 2.76,5 0,5 -2.76,5 -5,2.76 -5,0 c 0,-2.76 2.3,-5 5,-5 2.76,0 5,2.24 5,5 z"
         sodipodi:nodetypes="sssss"
         id="path3-3" /></marker><marker
       style="overflow:visible"
       id="marker3-5-6"
       refX="0"
       refY="0"
       orient="auto"
       inkscape:stockid="Dot"
       markerWidth="0.2"
       markerHeight="0.2"
       viewBox="0 0 1 1"
       inkscape:isstock="true"
       inkscape:collect="always"
       preserveAspectRatio="xMidYMid"><path
         transform="scale(0.5)"
         style="fill:context-stroke;fill-rule:evenodd;stroke:none"
         d="M 5,0 C 5,2.76 2.76,5 0,5 -2.76,5 -5,2.76 -5,0 c 0,-2.76 2.3,-5 5,-5 2.76,0 5,2.24 5,5 z"
         sodipodi:nodetypes="sssss"
         id="path3-6-1" /></marker><marker
       style="overflow:visible"
       id="Dot-2-8"
       refX="0"
       refY="0"
       orient="auto"
       inkscape:stockid="Dot"
       markerWidth="0.2"
       markerHeight="0.2"
       viewBox="0 0 1 1"
       inkscape:isstock="true"
       inkscape:collect="always"
       preserveAspectRatio="xMidYMid"><path
         transform="scale(0.5)"
         style="fill:context-stroke;fill-rule:evenodd;stroke:none"
         d="M 5,0 C 5,2.76 2.76,5 0,5 -2.76,5 -5,2.76 -5,0 c 0,-2.76 2.3,-5 5,-5 2.76,0 5,2.24 5,5 z"
         sodipodi:nodetypes="sssss"
         id="path17-9-7" /></marker></defs><g
     inkscape:label="Layer 1"
     inkscape:groupmode="layer"
     id="layer1"
     transform="translate(-1.9999925,-0.20000026)"><g
       id="g8"
       transform="matrix(3.0163121,0,0,3.0163121,-157.03462,-43.727695)"
       style="stroke:#d59e00;stroke-width:0.662125;stroke-dasharray:none;stroke-opacity:1"><g
         id="g22"
         style="stroke:#d59e00;stroke-opacity:1"><g
           id="g4"
           transform="matrix(1.6934132,0,0,1.6934132,-14.863678,-51.100586)"
           style="stroke:#d59e00;stroke-opacity:1"><path
             style="fill:none;stroke:#d59e00;stroke-width:0.4;stroke-dasharray:none;stroke-opacity:1;marker-start:url(#marker3)"
             d="m 49.288403,58.0993 -0.0219,-5.703261 c -0.4038,-1.561034 -1.23167,-2.403018 -2.369913,-3.353879 -0.641647,-0.536017 -1.256188,-1.159909 -2.035875,-1.746559 -0.467208,-0.522247 -2.222853,-0.560005 -1.882799,1.457418"
             id="path1"
             sodipodi:nodetypes="ccscc" /><path
             style="fill:none;stroke:#d59e00;stroke-width:0.4;stroke-dasharray:none;stroke-opacity:1;marker-start:url(#marker3-9)"
             d="m 49.31504,58.07803 0.0219,-5.703261 c 0.4038,-1.561034 1.23167,-2.403018 2.369913,-3.353879 0.641647,-0.536017 1.256188,-1.159909 2.035875,-1.746559 0.467208,-0.522247 2.222853,-0.560005 1.882799,1.457418"
             id="path1-0"
             sodipodi:nodetypes="ccscc" /><path
             style="fill:none;stroke:#d59e00;stroke-width:0.4;stroke-dasharray:none;stroke-opacity:1;marker-start:url(#marker3);marker-end:url(#Dot)"
             d="M 45.396952,51.472454 C 44.305434,50.371097 43.415499,49.359666 42.666561,48.202775 42.082474,46.501788 42.460267,44.594826 42.422315,42.802021 42.060663,40.821026 40.071663,41.510864 40.113256,42.7852 l 0.09744,6.109225 c 0.433205,2.600948 2.916206,4.515694 4.259655,6.514328 0.403828,1.053683 0.219766,1.805207 0.241125,2.655652"
             id="path2"
             sodipodi:nodetypes="ccccccc" /><path
             style="fill:none;stroke:#d59e00;stroke-width:0.4;stroke-dasharray:none;stroke-opacity:1;marker-start:url(#marker3-5);marker-end:url(#Dot-2)"
             d="m 53.22281,51.451549 c 1.091518,-1.101357 1.981453,-2.112788 2.730391,-3.269679 0.584087,-1.700987 0.206294,-3.607949 0.244246,-5.400754 0.361652,-1.980995 2.350652,-1.291157 2.309059,-0.01682 l -0.09744,6.109225 c -0.433205,2.600948 -2.916206,4.515694 -4.259655,6.514328 -0.403828,1.053683 -0.219766,1.805207 -0.241125,2.655652"
             id="path2-2"
             sodipodi:nodetypes="ccccccc" /></g><path
           style="fill:none;stroke:#d59e00;stroke-width:0.662125;stroke-dasharray:none;stroke-opacity:1;marker-start:url(#marker3-5);marker-end:url(#Dot-2)"
           d="M 57.688114,19.380207 C 66.564447,12.079654 73.749412,14.891768 79.280932,19.3332"
           id="path4"
           sodipodi:nodetypes="cc" /><path
           style="fill:none;stroke:#d59e00;stroke-width:0.662125;stroke-dasharray:none;stroke-opacity:1;marker-start:url(#marker3-5);marker-end:url(#Dot-2)"
           d="m 57.769217,22.094375 c 8.609312,-7.931555 15.407953,-5.827654 21.533916,0.0045"
           id="path5"
           sodipodi:nodetypes="cc" /><path
           style="fill:none;stroke:#d59e00;stroke-width:0.662125;stroke-dasharray:none;stroke-opacity:1;marker-start:url(#marker3-5-6);marker-end:url(#Dot-2-8)"
           d="m 57.731352,22.151672 c 8.609312,7.931555 15.407953,5.827654 21.533916,-0.0045"
           id="path5-2"
           sodipodi:nodetypes="cc" /><ellipse
           style="fill:none;stroke:#d59e00;stroke-width:0.662125;stroke-dasharray:none;stroke-opacity:1"
           id="path6"
           cx="68.52253"
           cy="22.131176"
           rx="5.2182498"
           ry="5.1528106" /><path
           style="fill:none;stroke:#d59e00;stroke-width:0.662125;stroke-dasharray:none;stroke-opacity:1;marker-start:url(#marker3-5-6);marker-end:url(#ArrowWide)"
           d="m 65.251252,23.441337 1.909874,-1.882307 1.929971,1.892815 2.744708,-2.652726"
           id="path7"
           sodipodi:nodetypes="cccc" /></g></g></g></svg>
