<?xml version="1.0" encoding="UTF-8" standalone="no"?>
<!-- Created with Inkscape (http://www.inkscape.org/) -->

<svg
   width="100mm"
   height="100mm"
   viewBox="0 0 100 100"
   version="1.1"
   id="svg1"
   xml:space="preserve"
   inkscape:export-filename="speech.svg"
   inkscape:export-xdpi="96"
   inkscape:export-ydpi="96"
   xmlns:inkscape="http://www.inkscape.org/namespaces/inkscape"
   xmlns:sodipodi="http://sodipodi.sourceforge.net/DTD/sodipodi-0.dtd"
   xmlns:xlink="http://www.w3.org/1999/xlink"
   xmlns="http://www.w3.org/2000/svg"
   xmlns:svg="http://www.w3.org/2000/svg"><sodipodi:namedview
     id="namedview1"
     pagecolor="#ffffff"
     bordercolor="#000000"
     borderopacity="0.25"
     inkscape:showpageshadow="2"
     inkscape:pageopacity="0.0"
     inkscape:pagecheckerboard="0"
     inkscape:deskcolor="#d1d1d1"
     inkscape:document-units="mm" /><defs
     id="defs1"><linearGradient
       id="linearGradient30"
       inkscape:collect="always"><stop
         style="stop-color:#d59e00;stop-opacity:1;"
         offset="0.71993876"
         id="stop30" /><stop
         style="stop-color:#d59e00;stop-opacity:0;"
         offset="1"
         id="stop31" /></linearGradient><marker
       style="overflow:visible"
       id="marker30"
       refX="0"
       refY="0"
       orient="auto"
       inkscape:stockid="Dot"
       markerWidth="0.2"
       markerHeight="0.2"
       viewBox="0 0 1 1"
       inkscape:isstock="true"
       inkscape:collect="always"
       preserveAspectRatio="xMidYMid"><path
         transform="scale(0.5)"
         style="fill:context-stroke;fill-rule:evenodd;stroke:none"
         d="M 5,0 C 5,2.76 2.76,5 0,5 -2.76,5 -5,2.76 -5,0 c 0,-2.76 2.3,-5 5,-5 2.76,0 5,2.24 5,5 z"
         sodipodi:nodetypes="sssss"
         id="path30" /></marker><marker
       style="overflow:visible"
       id="marker29"
       refX="0"
       refY="0"
       orient="auto"
       inkscape:stockid="Dot"
       markerWidth="0.2"
       markerHeight="0.2"
       viewBox="0 0 1 1"
       inkscape:isstock="true"
       inkscape:collect="always"
       preserveAspectRatio="xMidYMid"><path
         transform="scale(0.5)"
         style="fill:context-stroke;fill-rule:evenodd;stroke:none"
         d="M 5,0 C 5,2.76 2.76,5 0,5 -2.76,5 -5,2.76 -5,0 c 0,-2.76 2.3,-5 5,-5 2.76,0 5,2.24 5,5 z"
         sodipodi:nodetypes="sssss"
         id="path29" /></marker><marker
       style="overflow:visible"
       id="marker27"
       refX="0"
       refY="0"
       orient="auto"
       inkscape:stockid="Dot"
       markerWidth="0.2"
       markerHeight="0.2"
       viewBox="0 0 1 1"
       inkscape:isstock="true"
       inkscape:collect="always"
       preserveAspectRatio="xMidYMid"><path
         transform="scale(0.5)"
         style="fill:context-stroke;fill-rule:evenodd;stroke:none"
         d="M 5,0 C 5,2.76 2.76,5 0,5 -2.76,5 -5,2.76 -5,0 c 0,-2.76 2.3,-5 5,-5 2.76,0 5,2.24 5,5 z"
         sodipodi:nodetypes="sssss"
         id="path27" /></marker><marker
       style="overflow:visible"
       id="Dot"
       refX="0"
       refY="0"
       orient="auto"
       inkscape:stockid="Dot"
       markerWidth="0.2"
       markerHeight="0.2"
       viewBox="0 0 1 1"
       inkscape:isstock="true"
       inkscape:collect="always"
       preserveAspectRatio="xMidYMid"><path
         transform="scale(0.5)"
         style="fill:context-stroke;fill-rule:evenodd;stroke:none"
         d="M 5,0 C 5,2.76 2.76,5 0,5 -2.76,5 -5,2.76 -5,0 c 0,-2.76 2.3,-5 5,-5 2.76,0 5,2.24 5,5 z"
         sodipodi:nodetypes="sssss"
         id="path17" /></marker><linearGradient
       id="swatch18"
       inkscape:swatch="solid"><stop
         style="stop-color:#000000;stop-opacity:1;"
         offset="0"
         id="stop18" /></linearGradient><linearGradient
       inkscape:collect="always"
       xlink:href="#linearGradient30"
       id="linearGradient31"
       x1="34.588043"
       y1="49.945881"
       x2="83.43399"
       y2="49.945881"
       gradientUnits="userSpaceOnUse" /></defs><g
     inkscape:label="Layer 1"
     inkscape:groupmode="layer"
     id="layer1"><g
       id="g31"
       transform="matrix(1.3260608,0,0,1.3260608,-12.638544,-15.916962)"><path
         style="fill:#d59e00;fill-opacity:1;stroke:#d59e00;stroke-width:1;stroke-dasharray:none;stroke-opacity:1"
         d="m 28.170722,80.810748 -0.418246,-5.600299 c -0.302217,-2.910761 1.662233,-4.783552 5.139046,-5.963788 1.996334,-0.07323 3.866941,-1.183259 5.55315,-3.29819 0.817942,-2.245885 -0.630101,-5.116606 -0.997179,-6.956071 0.472182,-0.82912 0.693697,-1.383589 1.351407,-2.452566 0.927085,-1.997017 -0.369146,-1.855162 -0.599045,-2.818198 l 1.419127,-0.705079 c -0.146381,-1.507157 -0.11121,-4.057319 -0.14587,-5.9432 0.237079,-0.459487 1.757849,-1.512568 3.14233,-2.323873 2.047568,-2.087941 0.928069,-3.426594 0.150073,-4.66326 -2.445585,-3.106925 -3.458829,-4.396891 -6.497922,-8.98584 -0.262999,-3.031096 0.0014,-7.537579 -0.538985,-10.209568 -0.425795,-2.105391 -0.872229,-2.922791 -1.798651,-3.836095 -1.894141,1.0885 -4.077471,1.854689 -5.808236,2.904993 -2.443116,1.48259 -4.42091,3.161854 -6.113763,4.977866 -19.2347412,20.634122 -8.663513,45.138637 6.162764,55.873168 z"
         id="path24"
         sodipodi:nodetypes="csccccccccccccssc" /><path
         style="fill:url(#linearGradient31);fill-opacity:1;stroke:#d59e00;stroke-width:1;stroke-dasharray:none;stroke-opacity:1"
         d="m 34.708881,16.658586 c 1.438759,0.265546 4.097632,2.698382 6.076796,5.110868 1.076994,1.312794 1.345265,3.071758 1.75976,4.819168 0.591376,2.4931 1.48479,4.90464 2.300515,6.864967 l 1.57318,1.266783 1.707883,1.175907 c 0.335021,0.310759 1.008727,0.49865 1.585326,0.739047 1.092844,0.455631 2.462599,1.520631 2.584007,2.592333 -0.869321,1.93608 -3.486516,2.601994 -1.69077,5.467751 l 1.373785,1.633336 c -2.690719,3.272155 -1.234548,3.656881 0.493802,4.48969 0.331511,0.15974 0.530756,0.841905 0.893481,0.984415 l -0.41646,2.624006 c 2.754176,5.993602 1.358512,6.560211 0.660115,8.27334 -8.202215,1.143953 -11.943536,3.3401 -13.858931,5.966929 -3.433136,5.247251 -3.177618,9.558229 -2.33629,15.383119 12.078018,3.196551 26.685828,4.234163 39.90108,-14.457699 C 81.256508,62.036969 92.809432,38.352023 63.875322,18.597963 52.527892,11.592556 45.282226,14.02523 34.708881,16.658586 Z"
         id="path25"
         sodipodi:nodetypes="csscccscccscccccccc" /><path
         style="fill:none;fill-opacity:1;stroke:#ffffff;stroke-width:1;stroke-dasharray:none;stroke-opacity:1;marker-start:url(#Dot);marker-end:url(#marker27)"
         d="m 11.539186,47.984954 c 0.983215,6.061606 1.747656,3.769331 2.50901,1.359164 0.94582,-3.89981 1.762757,-3.223591 2.137293,-0.0033 0.798167,3.133751 1.590725,5.988483 2.212981,0.370823 1.109913,-7.782354 2.40433,-8.513841 3.041271,-0.263727 0.340446,7.25784 1.612088,9.342473 2.34346,0.163769"
         id="path26"
         sodipodi:nodetypes="cccccc" /><path
         style="fill:none;fill-opacity:1;stroke:#ffffff;stroke-width:1;stroke-dasharray:none;stroke-opacity:1;marker-start:url(#marker29);marker-end:url(#marker30)"
         d="m 54.308587,49.133892 c 0.501761,-0.752368 0.988193,-2.913713 2.318593,-0.367911 0.611002,1.11744 0.990237,6.894188 2.005613,-0.117686 0.781477,-2.736487 1.372317,-9.501635 2.733688,0.01656 0.52829,2.910293 1.090962,10.451272 1.816158,0.04418 0.794608,-4.721874 1.311112,-15.52272 2.692382,-0.09178 0.63678,9.109625 1.272679,11.215557 1.906921,0.132062 0.795816,-16.858656 1.706474,-16.972976 2.66968,0.03842 0.220771,6.104173 0.964928,21.128104 1.802406,0.192839 0.7189,-10.087778 1.550238,-15.32593 2.856285,-0.08927 0.381023,8.543662 1.360662,6.9199 1.89814,0.185126 1.09028,-3.579182 1.875526,-1.838911 2.735204,-0.355247 0.154484,0.266613 0.492413,0.186225 0.879517,0.164428"
         id="path28"
         sodipodi:nodetypes="cccccccccccsc" /></g></g></svg>
